<svg width="207" height="192" viewBox="0 0 207 192" fill="none" xmlns="http://www.w3.org/2000/svg">
<g id="services_number_01" clip-path="url(#clip0_0_328)">
<path id="Rectangle Copy 5" d="M0 57C0 25.5198 25.5198 0 57 0V0C88.4802 0 114 25.5198 114 57V57C114 88.4802 88.4802 114 57 114V114C25.5198 114 0 88.4802 0 57V57Z" fill="#293241"/>
<path id="Rectangle Copy 5_2" d="M33 105C33 56.9512 71.9512 18 120 18V18C168.049 18 207 56.9512 207 105V105C207 153.049 168.049 192 120 192V192C71.9512 192 33 153.049 33 105V105Z" fill="#EE6C4D"/>
<path id="1" d="M127.436 126H118.556V90.4804L107.036 95.5204L105.596 87.9003L120.296 81.3604H127.436V126Z" fill="white"/>
</g>
<defs>
<clipPath id="clip0_0_328">
<rect width="69" height="64" fill="white" transform="scale(3)"/>
</clipPath>
</defs>
</svg>
