<svg width="183" height="201" viewBox="0 0 183 201" fill="none" xmlns="http://www.w3.org/2000/svg">
<g id="services_number_04" clip-path="url(#clip0_0_346)">
<path id="Rectangle Copy 5" d="M69 144C69 112.52 94.5198 87 126 87V87C157.48 87 183 112.52 183 144V144C183 175.48 157.48 201 126 201V201C94.5198 201 69 175.48 69 144V144Z" fill="#293241"/>
<path id="Rectangle Copy 5_2" d="M0 87C0 38.9512 38.9512 0 87 0V0C135.049 0 174 38.9512 174 87V87C174 135.049 135.049 174 87 174V174C38.9512 174 0 135.049 0 87V87Z" fill="#EE6C4D"/>
<path id="4" d="M89.5165 63.3604H98.4565V90.9604H103.856V98.0404H98.4565V108H90.1164V98.0404H69.9565V91.0804L89.5165 63.3604ZM90.1164 73.8604L77.9965 90.9604H90.1164V73.8604Z" fill="white"/>
</g>
<defs>
<clipPath id="clip0_0_346">
<rect width="61" height="67" fill="white" transform="scale(3)"/>
</clipPath>
</defs>
</svg>
