<svg width="247px" height="49px" viewBox="0 0 247 49" version="1.1" xmlns="http://www.w3.org/2000/svg" xmlns:xlink="http://www.w3.org/1999/xlink">
    <g stroke="none" stroke-width="1" fill="none" fill-rule="evenodd">
        <g transform="translate(-372.000000, -34.000000)">
            <g id="logo" transform="translate(372.000000, 34.000000)">
                <path
                        d="M17.6268936,14.8480941 C16.9005495,14.4296269 16.6488876,13.4970429 17.0652628,12.7667179 C17.4816049,12.036393 18.4093313,11.78332 19.1356754,12.2021193 L36.2375485,22.0575867 C36.7092906,22.3293911 37,22.8341422 37,23.3806737 L37,47.4749527 C37,48.317201 36.3207971,49 35.4830254,49 L11.5169415,49 C10.6796984,49 10,48.3166364 10,47.4749527 C10,46.633269 10.6796984,45.9499054 11.5169415,45.9499054 L33.9660509,45.9499054 L33.9663812,24.2643037 L17.6268936,14.8480941 Z"
                        class="secondary"></path>
                <path
                        d="M26.7122672,0.198327093 C27.4438535,-0.212588691 28.3782756,0.0355913972 28.7976226,0.752737277 C29.2170028,1.46988316 28.9635247,2.38563833 28.2319383,2.79688024 L3.05577952,16.9415147 L3.05577952,40.0049457 L27.4721028,40.0049457 C28.3153552,40.0049457 29,40.6759777 29,41.5024729 C29,42.328968 28.3153552,43 27.4721028,43 L1.52788976,43 C0.684071639,43 0,42.3295224 0,41.5024729 L0,16.0738301 C0,15.5371611 0.293007192,15.0415184 0.768054169,14.7747492 L26.7122672,0.198327093 Z M20.0723236,24.726249 L20.0723236,33.5144657 C20.0723236,34.3415479 19.3882519,35.0119928 18.5444338,35.0119928 L9.57803443,35.0119928 C8.73421631,35.0119928 8.05014467,34.3415479 8.05014467,33.5144657 L8.05014467,24.726249 C8.05014467,23.8991994 8.73421631,23.2287544 9.57803443,23.2287544 L18.5444338,23.2287544 C19.3882519,23.2287544 20.0723236,23.8991994 20.0723236,24.726249 Z M11.1059242,32.0169712 L17.0165773,32.0169712 L17.0165773,26.2237761 L11.1059242,26.2237761 L11.1059242,32.0169712 Z"
                        class="primary"></path>
                <path
                        d="M73.6218123,34.5738454 L69.1489837,34.5738454 L69.096451,32.8159703 C68.6781596,33.5084757 68.1157317,34.0455903 67.4094956,34.4273475 C66.7032595,34.8091047 65.8880181,35 64.9637715,35 C63.7952479,35 62.7623242,34.6936983 61.8640156,34.0810948 C60.9660352,33.4685248 60.2640674,32.6162156 59.7584404,31.5242008 C59.2528135,30.432186 59,29.1759544 59,27.7554391 C59,26.3527096 59.2702149,25.100891 59.8106448,23.9999833 C60.351403,22.899109 61.0835771,22.0246012 62.0078237,21.3764932 C62.9320704,20.7284187 63.969919,20.4043647 65.1207128,20.4043647 C66.7423307,20.4043647 67.9978615,21.0258275 68.8873053,22.2687533 L68.8873053,13.0001003 L73.6218123,13.0001003 L73.6218123,34.5738454 Z M66.428448,30.711876 C67.2131548,30.711876 67.8583216,30.427773 68.3642769,29.8595669 C68.8699039,29.2913608 69.1227174,28.5722437 69.1227174,27.7021823 C69.1227174,26.8143687 68.8699039,26.0908052 68.3642769,25.5314585 C67.8583216,24.9721453 67.2131548,24.6924886 66.428448,24.6924886 C65.6263398,24.6924886 64.972308,24.9721453 64.4666811,25.5314585 C63.9610541,26.0908052 63.7082406,26.8143687 63.7082406,27.7021823 C63.7082406,28.5722437 63.9610541,29.2913608 64.4666811,29.8595669 C64.972308,30.427773 65.6263398,30.711876 66.428448,30.711876 Z M84.3200907,35 C82.6285387,35 81.1769954,34.7070041 79.964804,34.1210457 C78.7529409,33.5351208 77.8201577,32.6961175 77.1661259,31.6041027 C76.5120942,30.5120879 76.1850783,29.2114589 76.1850783,27.7021823 C76.1850783,26.2639148 76.4815596,24.994344 77.0745221,23.8934697 C77.6674846,22.792562 78.4958592,21.9358399 79.5596458,21.3232364 C80.623104,20.710633 81.8526968,20.4043647 83.2477676,20.4043647 C84.6080354,20.4043647 85.7850956,20.6840213 86.7789481,21.2433345 C87.7728005,21.8026478 88.5358376,22.5928073 89.0677309,23.6137797 C89.5996241,24.6347854 89.8655708,25.8555125 89.8655708,27.2760278 C89.8655708,27.5246263 89.8567059,27.7731914 89.8393045,28.0217899 C89.821903,28.2703884 89.7956367,28.5278464 89.7608338,28.7941972 L80.7889102,28.7941972 C80.9980559,29.7175154 81.4472103,30.387822 82.1360449,30.8050838 C82.8248796,31.2223455 83.7622594,31.4309931 84.9478561,31.4309931 C85.6629571,31.4309931 86.412861,31.3466447 87.1975678,31.1779481 C87.9822745,31.0092849 88.6711092,30.7828851 89.2637434,30.498782 L89.6823631,33.961242 C88.9498607,34.2986352 88.1172178,34.5560932 87.1844346,34.7336492 C86.251323,34.9112053 85.2965417,35 84.3200907,35 Z M85.4712129,26.1840129 C85.4712129,26.0064569 85.4534831,25.8377603 85.4186802,25.6779565 C85.2965417,25.0564936 85.0437283,24.563743 84.6602398,24.199738 C84.2764229,23.8357331 83.7796609,23.6537306 83.1692969,23.6537306 C81.8090291,23.6537306 80.9895194,24.4971803 80.7104396,26.1840129 L85.4712129,26.1840129 Z M92.5857782,34.5738454 L97.3202523,34.5738454 L97.3202523,13 L92.5857782,13 L92.5857782,34.5738454 Z M108.018564,35 C106.327012,35 104.875468,34.7070041 103.663605,34.1210457 C102.451414,33.5351208 101.518631,32.6961175 100.864599,31.6041027 C100.210567,30.5120879 99.8838795,29.2114589 99.8838795,27.7021823 C99.8838795,26.2639148 100.180032,24.994344 100.772995,23.8934697 C101.365957,22.792562 102.194332,21.9358399 103.258119,21.3232364 C104.321905,20.710633 105.55117,20.4043647 106.94624,20.4043647 C108.306508,20.4043647 109.483568,20.6840213 110.477421,21.2433345 C111.471273,21.8026478 112.23431,22.5928073 112.766204,23.6137797 C113.298097,24.6347854 113.564044,25.8555125 113.564044,27.2760278 C113.564044,27.5246263 113.555179,27.7731914 113.537777,28.0217899 C113.520376,28.2703884 113.49411,28.5278464 113.459307,28.7941972 L104.487383,28.7941972 C104.696529,29.7175154 105.145683,30.387822 105.834518,30.8050838 C106.523352,31.2223455 107.460732,31.4309931 108.646329,31.4309931 C109.36143,31.4309931 110.111334,31.3466447 110.896041,31.1779481 C111.680747,31.0092849 112.369582,30.7828851 112.962545,30.498782 L113.380836,33.961242 C112.648662,34.2986352 111.815691,34.5560932 110.882907,34.7336492 C109.949796,34.9112053 108.995343,35 108.018564,35 Z M109.169686,26.1840129 C109.169686,26.0064569 109.152284,25.8377603 109.117153,25.6779565 C108.995343,25.0564936 108.742201,24.563743 108.358713,24.199738 C107.975224,23.8357331 107.478134,23.6537306 106.86777,23.6537306 C105.507502,23.6537306 104.687992,24.4971803 104.408912,26.1840129 L109.169686,26.1840129 Z M116.284251,20.8304858 L120.914349,20.8304858 L120.966554,22.5617492 C121.332641,21.8692438 121.855997,21.3365423 122.535967,20.9636779 C123.215937,20.5907801 124.000644,20.4043647 124.890087,20.4043647 C126.389895,20.4043647 127.540689,20.8970819 128.342797,21.8825497 C129.144905,22.8680175 129.546124,24.3107314 129.546124,26.210658 L129.546124,34.5738454 L124.811617,34.5738454 L124.811617,27.116224 C124.811617,25.5004004 124.210118,24.6924886 123.006791,24.6924886 C122.361624,24.6924886 121.868802,24.9188885 121.528982,25.3716547 C121.188832,25.8244544 121.018758,26.468116 121.018758,27.3026729 L121.018758,34.5738454 L116.284251,34.5738454 L116.284251,20.8304858 Z M132.632747,34.5738454 L137.367221,34.5738454 L137.367221,20.8304858 L132.632747,20.8304858 L132.632747,34.5738454 Z M133.103571,17.9273391 C132.580542,17.4301755 132.318864,16.8264649 132.318864,16.1162073 C132.318864,15.3704451 132.575946,14.7534287 133.090437,14.2651579 C133.604929,13.7767199 134.236963,13.5326681 134.986867,13.5326681 C135.736771,13.5326681 136.364536,13.7767199 136.870163,14.2651579 C137.37579,14.7534287 137.628604,15.3704451 137.628604,16.1162073 C137.628604,16.8264649 137.37579,17.4301755 136.870163,17.9273391 C136.364536,18.4245362 135.736771,18.6731013 134.986867,18.6731013 C134.236963,18.6731013 133.609198,18.4245362 133.103571,17.9273391 Z M153.898628,34.5738454 L151.727387,34.5738454 L151.675183,32.1501101 C151.152155,33.055676 150.46332,33.7570742 149.608679,34.2542379 C148.754367,34.7514015 147.777916,35 146.679326,35 C145.476,35 144.39908,34.6981447 143.448895,34.0944341 C142.498382,33.4907234 141.752747,32.6517201 141.212317,31.577491 C140.671558,30.5032284 140.401344,29.2824679 140.401344,27.9152429 C140.401344,26.6012747 140.693557,25.4071927 141.277654,24.3329301 C141.861752,23.2586676 142.651055,22.4063584 143.644908,21.7760361 C144.63876,21.1456804 145.73735,20.8304858 146.940676,20.8304858 C147.934857,20.8304858 148.84597,21.0790843 149.674345,21.576248 C150.502391,22.073445 151.169556,22.7748098 151.675183,23.6803757 L151.675183,13.0001003 L153.898628,13.0001003 L153.898628,34.5738454 Z M143.252554,30.5520388 C143.653773,31.3155866 144.198471,31.9104044 144.887305,32.336559 C145.57614,32.7627136 146.365443,32.9757741 147.254559,32.9757741 C148.161404,32.9757741 148.954976,32.7627136 149.634945,32.336559 C150.314915,31.9104044 150.851405,31.3155866 151.243759,30.5520388 C151.636112,29.7885244 151.832124,28.9096036 151.832124,27.9152429 C151.832124,26.9208822 151.636112,26.0419614 151.243759,25.278447 C150.851405,24.5149326 150.314915,23.9200814 149.634945,23.4939268 C148.954976,23.0678057 148.161404,22.8547117 147.254559,22.8547117 C146.365443,22.8547117 145.57614,23.0678057 144.887305,23.4939268 C144.198471,23.9200814 143.658041,24.5149326 143.265687,25.278447 C142.873334,26.0419614 142.676993,26.9208822 142.676993,27.9152429 C142.676993,28.9096036 142.869066,29.7885244 143.252554,30.5520388 Z M170.482208,31.510895 C169.871844,32.5762647 169.048066,33.4241274 168.010545,34.0544831 C166.973025,34.6848389 165.817635,35 164.544702,35 C163.236639,35 162.068444,34.6892518 161.03946,34.067789 C160.010805,33.4463261 159.195563,32.6029098 158.593736,31.5375401 C157.992237,30.4721369 157.691487,29.2647157 157.691487,27.9152429 C157.691487,26.5835224 157.996505,25.384994 158.606869,24.3195909 C159.217233,23.2542211 160.041339,22.4063584 161.078859,21.7760361 C162.11638,21.1456804 163.27177,20.8304858 164.544702,20.8304858 C165.852438,20.8304858 167.02523,21.141234 168.06275,21.7626968 C169.10027,22.3841597 169.915511,23.2276095 170.508474,24.2929792 C171.101436,25.3583489 171.397918,26.5657701 171.397918,27.9152429 C171.397918,29.2292111 171.092572,30.427773 170.482208,31.510895 Z M160.542698,30.5520388 C160.943588,31.3155866 161.488614,31.9104044 162.177449,32.336559 C162.866284,32.7627136 163.655259,32.9757741 164.544702,32.9757741 C165.451548,32.9757741 166.244791,32.7627136 166.925089,32.336559 C167.605059,31.9104044 168.14122,31.3155866 168.533574,30.5520388 C168.925927,29.7885244 169.122268,28.9096036 169.122268,27.9152429 C169.122268,26.9208822 168.925927,26.0419614 168.533574,25.278447 C168.14122,24.5149326 167.605059,23.9200814 166.925089,23.4939268 C166.244791,23.0678057 165.451548,22.8547117 164.544702,22.8547117 C163.655259,22.8547117 162.866284,23.0678057 162.177449,23.4939268 C161.488614,23.9200814 160.947856,24.5149326 160.555503,25.278447 C160.163149,26.0419614 159.967137,26.9208822 159.967137,27.9152429 C159.967137,28.9096036 160.158881,29.7885244 160.542698,30.5520388 Z M175.190777,21.2566404 L177.283218,21.2566404 L177.309485,23.5205719 C177.675572,22.6682628 178.238,22.006849 178.99644,21.536297 C179.755209,21.0657785 180.622655,20.8304858 181.599106,20.8304858 C183.726679,20.8304858 185.148016,21.8248465 185.862789,23.8135678 C186.211474,22.9079685 186.791304,22.184405 187.602277,21.642844 C188.41325,21.101283 189.3329,20.8304858 190.361884,20.8304858 C191.913896,20.8304858 193.108357,21.3232364 193.945268,22.3087043 C194.782508,23.2941721 195.201128,24.7013815 195.201128,26.5302656 L195.201128,34.5738454 L192.977682,34.5738454 L192.977682,26.9297751 C192.977682,24.195325 191.931297,22.8280666 189.838855,22.8280666 C188.740266,22.8280666 187.877088,23.2187166 187.248994,23.9999833 C186.621229,24.7812834 186.307346,25.8555125 186.307346,27.222771 L186.307346,34.5738454 L184.084229,34.5738454 L184.084229,26.90313 C184.084229,24.1864322 183.055246,22.8280666 180.997607,22.8280666 C179.881616,22.8280666 179.005305,23.2142702 178.368675,23.9866774 C177.732373,24.7590847 177.413894,25.8289008 177.413894,27.1961259 L177.413894,34.5738454 L175.190777,34.5738454 L175.190777,21.2566404 Z M199.752427,21.2566404 L201.975872,21.2566404 L201.975872,29.4866691 C201.975872,31.8305025 203.117801,33.0024192 205.402316,33.0024192 C207.651699,33.0024192 208.776555,31.8305025 208.776555,29.4866691 L208.776555,21.2566404 L211,21.2566404 L211,29.4866691 C211,31.2090396 210.50291,32.5585124 209.509057,33.5351208 C208.515205,34.5116958 207.137535,35 205.376049,35 C203.614891,35 202.237222,34.5116958 201.24337,33.5351208 C200.249189,32.5585124 199.752427,31.2090396 199.752427,29.4866691 L199.752427,21.2566404 Z"
                        class="primary"></path>
                <path
                        d="M216.46772,34.3345997 C216.155907,33.9974729 216,33.580466 216,33.0836457 C216,32.5868255 216.160147,32.174262 216.480767,31.8459885 C216.801061,31.5177484 217.203874,31.3536116 217.688881,31.3536116 C218.173888,31.3536116 218.576701,31.5177484 218.897321,31.8459885 C219.217615,32.174262 219.378088,32.5868255 219.378088,33.0836457 C219.378088,33.580466 219.217615,33.9930295 218.897321,34.321303 C218.576701,34.6495431 218.173888,34.8136799 217.688881,34.8136799 C217.203874,34.8136799 216.79682,34.6539865 216.46772,34.3345997 Z M223.249663,24.3802216 C223.838717,23.3155878 224.66163,22.4860507 225.718404,21.8916104 C226.774852,21.2972035 228.004819,21 229.408306,21 C230.083793,21 230.75928,21.0887 231.435093,21.2661334 C232.11058,21.4436002 232.716921,21.6831403 233.253788,21.9847871 L232.941974,23.9277347 C232.456967,23.6615679 231.885527,23.4442111 231.227,23.2756644 C230.5688,23.1070843 229.962459,23.0227943 229.408306,23.0227943 C227.970245,23.0227943 226.813991,23.4708378 225.939218,24.3668915 C225.064444,25.2629787 224.627057,26.4651226 224.627057,27.97339 C224.627057,29.534844 225.068684,30.7591713 225.952264,31.6463717 C226.835518,32.5335721 228.039718,32.9771723 229.564212,32.9771723 C230.135653,32.9771723 230.720466,32.9062123 231.318,32.7642589 C231.915534,32.6223055 232.561014,32.4005054 233.253788,32.0988586 L233.513741,33.9885862 C232.959261,34.307973 232.322914,34.5563998 231.60372,34.7338332 C230.884853,34.9112666 230.161746,35 229.434073,35 C227.996339,35 226.749085,34.7160932 225.692311,34.1482796 C224.635537,33.580466 223.81719,32.7775556 223.236617,31.7395485 C222.65637,30.7015079 222.366083,29.481624 222.366083,28.07983 C222.366083,26.6780694 222.66061,25.4448554 223.249663,24.3802216 Z M244.219446,23.2889611 L236.528155,23.2889611 L236.528155,21.3459801 L246.818,21.3459801 L246.818,23.2623344 L238.788803,32.7110055 L247,32.7110055 L247,34.6539865 L236.242109,34.6539865 L236.242109,32.7376322 L244.219446,23.2889611 Z"
                        class="secondary"></path>
            </g>
        </g>
    </g>
</svg>
